<svg width="34" height="34" viewBox="0 0 34 34" fill="none" xmlns="http://www.w3.org/2000/svg">
<path d="M7.07529 3.55403C7.07529 2.07321 8.27573 0.872778 9.75654 0.872778H22.9565C23.0566 0.872778 23.1525 0.91251 23.2232 0.983231L32.1273 9.88737C32.1981 9.95809 32.2378 10.054 32.2378 10.154V29.954C32.2378 31.4348 31.0374 32.6353 29.5565 32.6353H9.75654C8.27573 32.6353 7.07529 31.4348 7.07529 29.954V3.55403Z" fill="white" stroke="#D0D5DD" stroke-width="1.2375"/>
<path d="M22.9565 0.666504V6.854C22.9565 8.67654 24.434 10.154 26.2565 10.154H32.444" stroke="#D0D5DD" stroke-width="1.2375"/>
<rect x="1.58154" y="15.054" width="22.95" height="13.3" rx="1.65" fill="#099250"/>
<path d="M9.98108 20.8046H8.69788C8.67444 20.6386 8.62659 20.4911 8.55432 20.3622C8.48206 20.2314 8.38928 20.1201 8.276 20.0283C8.16272 19.9365 8.03186 19.8661 7.88342 19.8173C7.73694 19.7685 7.57776 19.7441 7.40588 19.7441C7.09534 19.7441 6.82483 19.8212 6.59436 19.9755C6.36389 20.1279 6.18518 20.3505 6.05823 20.6435C5.93127 20.9345 5.8678 21.288 5.8678 21.704C5.8678 22.1318 5.93127 22.4911 6.05823 22.7822C6.18713 23.0732 6.36682 23.2929 6.59729 23.4413C6.82776 23.5898 7.09436 23.664 7.39709 23.664C7.56702 23.664 7.72424 23.6415 7.86877 23.5966C8.01526 23.5517 8.14514 23.4863 8.25842 23.4003C8.3717 23.3124 8.46545 23.206 8.53967 23.081C8.61584 22.956 8.66858 22.8134 8.69788 22.6533L9.98108 22.6591C9.94788 22.9345 9.86487 23.2001 9.73206 23.456C9.6012 23.7099 9.42444 23.9374 9.20178 24.1386C8.98108 24.3378 8.71741 24.496 8.41077 24.6132C8.10608 24.7285 7.76135 24.7861 7.37659 24.7861C6.84143 24.7861 6.36292 24.665 5.94104 24.4228C5.52112 24.1806 5.18909 23.83 4.94495 23.371C4.70276 22.912 4.58167 22.3564 4.58167 21.704C4.58167 21.0497 4.70471 20.4931 4.95081 20.0341C5.1969 19.5751 5.53088 19.2255 5.95276 18.9853C6.37463 18.7431 6.84924 18.622 7.37659 18.622C7.72424 18.622 8.04651 18.6708 8.34338 18.7685C8.64221 18.8661 8.90686 19.0087 9.13733 19.1962C9.3678 19.3818 9.5553 19.6093 9.69983 19.8788C9.84631 20.1484 9.94006 20.457 9.98108 20.8046ZM14.1456 20.4296C14.1222 20.1933 14.0216 20.0097 13.8439 19.8788C13.6661 19.748 13.4249 19.6826 13.1202 19.6826C12.9132 19.6826 12.7384 19.7119 12.5958 19.7704C12.4532 19.8271 12.3439 19.9062 12.2677 20.0078C12.1935 20.1093 12.1564 20.2245 12.1564 20.3535C12.1525 20.4609 12.1749 20.5546 12.2238 20.6347C12.2745 20.7148 12.3439 20.7841 12.4318 20.8427C12.5197 20.8994 12.6212 20.9492 12.7365 20.9921C12.8517 21.0331 12.9747 21.0683 13.1056 21.0976L13.6447 21.2265C13.9064 21.2851 14.1466 21.3632 14.3654 21.4609C14.5841 21.5585 14.7736 21.6786 14.9337 21.8212C15.0939 21.9638 15.2179 22.1318 15.3058 22.3251C15.3956 22.5185 15.4415 22.7402 15.4435 22.9902C15.4415 23.3574 15.3478 23.6757 15.1622 23.9453C14.9786 24.2128 14.713 24.4208 14.3654 24.5693C14.0197 24.7158 13.6027 24.789 13.1144 24.789C12.63 24.789 12.2081 24.7148 11.8488 24.5663C11.4913 24.4179 11.212 24.1982 11.0109 23.9072C10.8116 23.6142 10.7072 23.2519 10.6974 22.8203H11.9249C11.9386 23.0214 11.9962 23.1894 12.0978 23.3242C12.2013 23.457 12.339 23.5576 12.5109 23.6259C12.6847 23.6923 12.881 23.7255 13.0997 23.7255C13.3146 23.7255 13.5011 23.6943 13.6593 23.6318C13.8195 23.5693 13.9435 23.4824 14.0314 23.371C14.1193 23.2597 14.1632 23.1318 14.1632 22.9872C14.1632 22.8525 14.1232 22.7392 14.0431 22.6474C13.965 22.5556 13.8497 22.4775 13.6974 22.413C13.547 22.3486 13.3624 22.29 13.1437 22.2372L12.4904 22.0732C11.9845 21.9501 11.5851 21.7578 11.2921 21.496C10.9991 21.2343 10.8536 20.8818 10.8556 20.4384C10.8536 20.0751 10.9503 19.7578 11.1456 19.4863C11.3429 19.2148 11.6134 19.0029 11.9572 18.8505C12.3009 18.6982 12.6915 18.622 13.129 18.622C13.5743 18.622 13.963 18.6982 14.295 18.8505C14.629 19.0029 14.8888 19.2148 15.0743 19.4863C15.2599 19.7578 15.3556 20.0722 15.3615 20.4296H14.1456ZM17.3807 18.704L18.8309 23.2626H18.8866L20.3397 18.704H21.746L19.6776 24.704H18.0428L15.9716 18.704H17.3807Z" fill="white"/>
</svg>
