<svg width="33" height="34" viewBox="0 0 33 34" fill="none" xmlns="http://www.w3.org/2000/svg">
<path d="M6.39365 3.55403C6.39365 2.07321 7.59409 0.872778 9.0749 0.872778H22.2749C22.3749 0.872778 22.4708 0.91251 22.5416 0.983231L31.4457 9.88737C31.5164 9.95809 31.5562 10.054 31.5562 10.154V29.954C31.5562 31.4348 30.3557 32.6353 28.8749 32.6353H9.0749C7.59409 32.6353 6.39365 31.4348 6.39365 29.954V3.55403Z" fill="white" stroke="#D0D5DD" stroke-width="1.2375"/>
<path d="M22.2749 0.666504V6.854C22.2749 8.67654 23.7524 10.154 25.5749 10.154H31.7624" stroke="#D0D5DD" stroke-width="1.2375"/>
<rect x="0.575195" y="15.054" width="21.95" height="13.3" rx="1.65" fill="#D92D20"/>
<path d="M3.98645 24.704V18.704H6.35364C6.80872 18.704 7.19641 18.791 7.51672 18.9648C7.83704 19.1367 8.08118 19.3759 8.24915 19.6826C8.41907 19.9872 8.50403 20.3388 8.50403 20.7372C8.50403 21.1357 8.41809 21.4872 8.24622 21.7919C8.07434 22.0966 7.82532 22.3339 7.49915 22.5038C7.17493 22.6738 6.78235 22.7587 6.32141 22.7587H4.81262V21.7421H6.11633C6.36047 21.7421 6.56165 21.7001 6.71985 21.6161C6.88001 21.5302 6.99915 21.412 7.07727 21.2617C7.15735 21.1093 7.19739 20.9345 7.19739 20.7372C7.19739 20.538 7.15735 20.3642 7.07727 20.2158C6.99915 20.0654 6.88001 19.9492 6.71985 19.8671C6.55969 19.7831 6.35657 19.7411 6.11047 19.7411H5.255V24.704H3.98645ZM11.455 24.704H9.328V18.704H11.4725C12.076 18.704 12.5956 18.8242 13.0311 19.0644C13.4667 19.3027 13.8016 19.6454 14.036 20.0927C14.2723 20.54 14.3905 21.0751 14.3905 21.6982C14.3905 22.3232 14.2723 22.8603 14.036 23.3095C13.8016 23.7587 13.4647 24.1035 13.0253 24.3437C12.5878 24.5839 12.0643 24.704 11.455 24.704ZM10.5966 23.6171H11.4022C11.7772 23.6171 12.0927 23.5507 12.3485 23.4179C12.6063 23.2831 12.7997 23.0751 12.9286 22.7939C13.0594 22.5107 13.1249 22.1454 13.1249 21.6982C13.1249 21.2548 13.0594 20.8925 12.9286 20.6113C12.7997 20.33 12.6073 20.123 12.3514 19.9902C12.0956 19.8574 11.7802 19.791 11.4052 19.791H10.5966V23.6171ZM15.3302 24.704V18.704H19.3029V19.7499H16.5988V21.1796H19.0392V22.2255H16.5988V24.704H15.3302Z" fill="white"/>
</svg>
