<svg width="30" height="31" viewBox="0 0 30 31" fill="none" xmlns="http://www.w3.org/2000/svg">
<g clip-path="url(#clip0_118_109)">
<path d="M15.0016 0.414062C6.71313 0.414062 -0.03125 7.15656 -0.03125 15.4459C-0.03125 23.7353 6.71313 30.4778 15.0016 30.4778C23.29 30.4778 30.0344 23.7353 30.0344 15.4459C30.0344 7.15656 23.29 0.414062 15.0016 0.414062ZM15.0016 29.4766C7.26531 29.4766 0.971875 23.1822 0.971875 15.4459C0.971875 7.70969 7.26531 1.41531 15.0016 1.41531C22.7378 1.41531 29.0312 7.70969 29.0312 15.4459C29.0312 23.1822 22.7378 29.4766 15.0016 29.4766Z" fill="white"/>
<path d="M23.2449 10.8016C23.3489 10.6091 23.4346 10.4073 23.5008 10.1988C23.5315 10.102 23.5321 9.99829 23.5026 9.90122C23.4731 9.80414 23.4148 9.7183 23.3355 9.65503C23.2562 9.59176 23.1595 9.55403 23.0583 9.54683C22.9571 9.53963 22.8561 9.56329 22.7686 9.61469C22.2882 9.90007 21.7682 10.1127 21.2255 10.2456C20.5667 9.65104 19.7111 9.32141 18.8236 9.32031C18.3415 9.32068 17.8644 9.41841 17.4209 9.60762C16.9775 9.79683 16.5768 10.0736 16.2429 10.4215C15.909 10.7693 15.6488 11.1809 15.4778 11.6317C15.3069 12.0826 15.2287 12.5632 15.248 13.045C13.1396 12.7796 11.2143 11.7127 9.87145 10.0656C9.82 10.0032 9.75425 9.95417 9.67978 9.92262C9.60532 9.89107 9.52434 9.87796 9.44372 9.8844C9.3631 9.89084 9.28523 9.91665 9.21672 9.95962C9.14821 10.0026 9.09109 10.0615 9.0502 10.1313C8.74272 10.659 8.5756 11.2567 8.56476 11.8674C8.55393 12.4781 8.69976 13.0814 8.98833 13.6197C8.91755 13.6316 8.84956 13.6564 8.7877 13.6928C8.7119 13.7411 8.64949 13.8078 8.60624 13.8866C8.56298 13.9654 8.54027 14.0538 8.5402 14.1438C8.5402 15.2078 9.01364 16.1847 9.77676 16.8484L9.74395 16.8813C9.68634 16.9464 9.6467 17.0255 9.62895 17.1106C9.61119 17.1958 9.61593 17.2841 9.6427 17.3669C9.80183 17.8633 10.0675 18.319 10.4212 18.7019C10.7749 19.0849 11.208 19.386 11.6902 19.5841C10.6998 20.0672 9.59147 20.2556 8.49707 20.1269C8.38458 20.1154 8.27146 20.1416 8.17544 20.2013C8.07941 20.261 8.00591 20.3509 7.96645 20.4569C7.92855 20.5636 7.92784 20.6801 7.96443 20.7873C8.00102 20.8945 8.07276 20.9862 8.16801 21.0475C9.65584 22.0024 11.3867 22.5097 13.1546 22.5091C18.9483 22.5091 22.4114 17.8028 22.4114 13.2531L22.4105 13.0994C22.972 12.661 23.4597 12.1356 23.8552 11.5431C23.9151 11.4536 23.9445 11.3471 23.9392 11.2395C23.9338 11.1319 23.894 11.0288 23.8255 10.9456C23.757 10.8624 23.6636 10.8035 23.559 10.7776C23.4545 10.7516 23.3443 10.76 23.2449 10.8016ZM21.6089 12.4469C21.5409 12.4958 21.4862 12.561 21.4499 12.6365C21.4135 12.712 21.3967 12.7954 21.4008 12.8791C21.4064 13.0028 21.4093 13.1284 21.4093 13.2522C21.4093 17.3097 18.3221 21.5069 13.1555 21.5069C12.234 21.5073 11.3191 21.3526 10.449 21.0494C11.4911 20.8497 12.47 20.4028 13.3036 19.7463C13.3848 19.6823 13.4442 19.5948 13.4737 19.4958C13.5033 19.3967 13.5015 19.291 13.4687 19.193C13.4358 19.0951 13.3735 19.0096 13.2903 18.9484C13.2071 18.8871 13.1069 18.8531 13.0036 18.8509C12.5994 18.8432 12.2027 18.7406 11.8454 18.5514C11.4881 18.3622 11.1803 18.0916 10.9468 17.7616C11.1839 17.7456 11.4165 17.7063 11.6424 17.6453C11.7517 17.616 11.8479 17.5506 11.9153 17.4596C11.9827 17.3686 12.0172 17.2575 12.0133 17.1444C12.0094 17.0313 11.9672 16.9228 11.8937 16.8367C11.8202 16.7506 11.7197 16.6919 11.6086 16.6703C11.1521 16.5774 10.7294 16.3622 10.3857 16.0476C10.0421 15.733 9.79045 15.331 9.6577 14.8844C9.90707 14.9472 10.163 14.9837 10.4189 14.9922C10.6393 14.9913 10.8436 14.8563 10.9121 14.6444C10.9805 14.4325 10.8999 14.1991 10.7133 14.0753C10.2722 13.7814 9.93256 13.3585 9.74077 12.8644C9.54899 12.3702 9.51441 11.8289 9.64176 11.3144C11.2702 12.9853 13.4692 13.9803 15.7993 14.1006C15.9643 14.1016 16.1086 14.0425 16.2089 13.9216C16.3093 13.8006 16.3477 13.6403 16.3121 13.4866C16.1839 12.9344 16.2412 12.3553 16.4752 11.839C16.7093 11.3227 17.107 10.8979 17.6068 10.6304C18.1066 10.3629 18.6806 10.2676 19.24 10.3592C19.7994 10.4508 20.3131 10.7242 20.7014 11.1372C20.7597 11.1993 20.8327 11.2456 20.9137 11.2716C20.9947 11.2977 21.0811 11.3027 21.1646 11.2863C21.3193 11.2553 21.4721 11.2197 21.623 11.1784C21.555 11.2294 21.4842 11.2766 21.4111 11.32C21.3139 11.3796 21.2399 11.4704 21.2013 11.5777C21.1626 11.685 21.1617 11.8022 21.1986 11.91C21.2355 12.0179 21.308 12.11 21.4043 12.1711C21.5005 12.2322 21.6147 12.2587 21.728 12.2463L21.8986 12.2247C21.8047 12.3021 21.7081 12.3762 21.6089 12.4469Z" fill="white"/>
<path d="M13.002 19.4458C13.402 20.2458 11.0024 20.7791 10.0024 20.9458C14.002 22.9458 18.5021 20.1125 20.0024 18.4458V17.9458C21.6024 17.1458 21.6691 14.2791 21.5024 12.9458L22.5024 12.4458L22.0024 11.4458L21.5024 10.9458L18.5024 9.9458L17.5024 10.4458L16.5024 11.4458L16.0024 12.4458V13.9458C13.6024 14.3458 10.6688 12.1125 9.50195 10.9458C8.70195 11.7458 9.50195 13.2791 10.002 13.9458L9.50195 14.4458V15.4458C10.1686 15.9458 10.9024 17.0458 10.5024 17.4458C10.1024 17.8458 12.1686 18.9458 13.002 19.4458Z" fill="white"/>
</g>
<defs>
<clipPath id="clip0_118_109">
<rect width="30" height="30" fill="white" transform="translate(0 0.445312)"/>
</clipPath>
</defs>
</svg>
